<?xml version="1.0" encoding="UTF-8"?>
<svg width="512" height="512" viewBox="0 0 512 512" fill="none" xmlns="http://www.w3.org/2000/svg">
  <rect width="512" height="512" rx="128" fill="#000"/>
  <path d="M384 192C384 279.529 312.901 352 224 352C135.099 352 64 279.529 64 192C64 104.471 135.099 32 224 32C312.901 32 384 104.471 384 192Z" fill="#22C55E"/>
  <path d="M448 320C448 407.529 376.901 480 288 480C199.099 480 128 407.529 128 320C128 232.471 199.099 160 288 160C376.901 160 448 232.471 448 320Z" fill="#22C55E" fill-opacity="0.5"/>
  <path d="M224 288C277.019 288 320 245.019 320 192C320 138.981 277.019 96 224 96C170.981 96 128 138.981 128 192C128 245.019 170.981 288 224 288Z" fill="#000"/>
  <path d="M288 416C341.019 416 384 373.019 384 320C384 266.981 341.019 224 288 224C234.981 224 192 266.981 192 320C192 373.019 234.981 416 288 416Z" fill="#000"/>
</svg>