<?xml version="1.0" encoding="UTF-8"?>
<svg width="512" height="512" viewBox="0 0 512 512" fill="none" xmlns="http://www.w3.org/2000/svg">
  <!-- Background Circle -->
  <circle cx="256" cy="256" r="256" fill="url(#gradient)" />
  
  <!-- Brain Circuit Icon -->
  <path d="M256 128C238.33 128 224 142.33 224 160V352C224 369.67 238.33 384 256 384C273.67 384 288 369.67 288 352V160C288 142.33 273.67 128 256 128ZM256 176C264.84 176 272 183.16 272 192C272 200.84 264.84 208 256 208C247.16 208 240 200.84 240 192C240 183.16 247.16 176 256 176ZM256 304C247.16 304 240 296.84 240 288C240 279.16 247.16 272 256 272C264.84 272 272 279.16 272 288C272 296.84 264.84 304 256 304Z" fill="white"/>
  
  <!-- Circuit Lines -->
  <path d="M160 256H96M416 256H352M256 96V160M256 352V416" stroke="white" stroke-width="24" stroke-linecap="round"/>
  
  <!-- Gradient Definition -->
  <defs>
    <linearGradient id="gradient" x1="0" y1="0" x2="512" y2="512" gradientUnits="userSpaceOnUse">
      <stop offset="0%" style="stop-color:#3B82F6"/>
      <stop offset="100%" style="stop-color:#8B5CF6"/>
    </linearGradient>
  </defs>
</svg>
